# xmcd
# 
# Track frame offsets:
#     150
#     26414
#     60451
#     84172
#     108022
#     150000
#     174217
# 
# Disc length: 2618
# 
# Revision: 4
# Processed by: cddbd v1.5.2PL0 Copyright (c) Steve Scherf et al.
# Submitted via: fre:ac v1.0.31
# 
DISCID=340a3807
DTITLE=Isaac Hayes - Black Moses Disc 2
DYEAR=1972
DGENRE=R&B
TTITLE0=Never Gonna Give You Up
TTITLE1=Medley - Ike's Rap II-Help Me Love
TTITLE2=Need To Belong To Someone
TTITLE3=Good Love
TTITLE4=Medley - Ike's Rap III-Your Love Is So Doggone
TTITLE5=For The Good Times
TTITLE6=I'll Never Fall In Love Again
EXTD=
EXTT0=
EXTT1=
EXTT2=
EXTT3=
EXTT4=
EXTT5=
EXTT6=
PLAYORDER=
